<?xml version="1.0" encoding="UTF-8" standalone="no"?>
<!-- Created with Inkscape (http://www.inkscape.org/) -->

<svg
   width="73.184044mm"
   height="72.73185mm"
   viewBox="0 0 73.184044 72.73185"
   version="1.1"
   id="svg1"
   xml:space="preserve"
   inkscape:version="1.3 (0e150ed6c4, 2023-07-21)"
   sodipodi:docname="css.svg"
   xmlns:inkscape="http://www.inkscape.org/namespaces/inkscape"
   xmlns:sodipodi="http://sodipodi.sourceforge.net/DTD/sodipodi-0.dtd"
   xmlns="http://www.w3.org/2000/svg"
   xmlns:svg="http://www.w3.org/2000/svg"><sodipodi:namedview
     id="namedview1"
     pagecolor="#ffffff"
     bordercolor="#111111"
     borderopacity="1"
     inkscape:showpageshadow="0"
     inkscape:pageopacity="0"
     inkscape:pagecheckerboard="1"
     inkscape:deskcolor="#d1d1d1"
     inkscape:document-units="mm"
     inkscape:zoom="2.8284271"
     inkscape:cx="75.130095"
     inkscape:cy="48.613591"
     inkscape:window-width="1920"
     inkscape:window-height="1017"
     inkscape:window-x="-8"
     inkscape:window-y="-8"
     inkscape:window-maximized="1"
     inkscape:current-layer="layer1" /><defs
     id="defs1"><rect
       x="10.596258"
       y="51.614029"
       width="312.4187"
       height="194.15079"
       id="rect5" /></defs><g
     inkscape:label="Layer 1"
     inkscape:groupmode="layer"
     id="layer1"
     transform="translate(1.4712909,1.2774737)"><g
       style="fill:#000000"
       id="g4"
       transform="matrix(3.0493351,0,0,3.0304938,-1.4712908,-1.2774737)"><g
         id="g1"><rect
           fill="none"
           height="24"
           width="24"
           y="0"
           id="rect1"
           x="0" /></g><g
         id="g3"
         style="fill:#b8ddb8;fill-opacity:1"><g
           id="g2"
           style="fill:#b8ddb8;fill-opacity:1"><path
             d="M 20,3 H 4 C 2.9,3 2,3.9 2,5 v 11 c 0,1.1 0.9,2 2,2 h 3 l -1,1 v 2 h 12 v -2 l -1,-1 h 3 c 1.1,0 2,-0.9 2,-2 V 5 C 22,3.9 21.1,3 20,3 Z m 0,13 H 4 V 5 h 16 z"
             id="path1"
             style="fill:#b8ddb8;fill-opacity:1" /></g></g></g><text
       xml:space="preserve"
       transform="matrix(0.30452251,0,0,0.33049681,7.7119819,-0.50419492)"
       id="text5"
       style="font-size:74.6667px;white-space:pre;shape-inside:url(#rect5);display:inline;fill:#b8ddb8;fill-opacity:1"><tspan
         x="10.595703"
         y="119.73398"
         id="tspan1">CSS</tspan></text></g></svg>
